<?xml version="1.0" standalone="no"?>
<!DOCTYPE svg PUBLIC "-//W3C//DTD SVG 20010904//EN"
 "http://www.w3.org/TR/2001/REC-SVG-20010904/DTD/svg10.dtd">
<svg version="1.0" xmlns="http://www.w3.org/2000/svg"
 width="225.000000pt" height="225.000000pt" viewBox="0 0 225.000000 225.000000"
 preserveAspectRatio="xMidYMid meet">
<metadata>
Created by potrace 1.14, written by Peter Selinger 2001-2017
</metadata>
<g transform="translate(0.000000,225.000000) scale(0.100000,-0.100000)"
fill="#000000" stroke="none">
<path d="M740 1906 c-98 -41 -127 -57 -172 -98 -42 -38 -78 -113 -94 -198 -2
-8 -6 -31 -10 -50 -11 -51 -11 -53 -12 -82 -1 -15 -9 -33 -17 -42 -9 -8 -16
-19 -17 -23 0 -4 -17 -33 -36 -63 -69 -106 -79 -133 -76 -204 2 -71 15 -119
48 -181 43 -81 51 -88 108 -92 45 -4 69 2 168 42 149 61 195 81 253 111 39 21
51 23 63 13 8 -6 48 -82 90 -168 41 -86 94 -192 117 -236 22 -44 45 -90 51
-102 6 -13 14 -23 18 -23 3 0 17 -19 31 -42 14 -24 50 -67 80 -97 l55 -54 49
8 c26 4 49 7 50 6 2 0 21 6 43 14 22 8 40 12 40 9 0 -2 15 3 33 12 40 21 147
129 147 149 0 18 -42 104 -51 105 -4 0 -36 18 -70 40 -35 22 -71 43 -79 47 -8
4 -48 34 -88 66 -77 62 -101 100 -140 212 -21 62 -37 222 -24 240 4 6 21 17
37 25 17 8 32 18 35 21 3 4 25 16 50 29 37 19 147 93 198 134 19 15 65 62 79
79 12 15 29 104 24 122 -2 6 -4 15 -5 20 -1 6 -7 19 -13 30 -6 11 -11 23 -12
28 -2 27 -43 71 -91 96 -55 30 -91 40 -160 47 -19 1 -60 5 -90 8 -114 11 -166
17 -190 22 -14 3 -38 7 -55 10 -16 2 -63 12 -105 21 -124 27 -174 25 -260 -11z"/>
</g>
</svg>
